<?xml version="1.0" encoding="UTF-8"?>
<!DOCTYPE svg PUBLIC "-//W3C//DTD SVG 1.1//EN" "http://www.w3.org/Graphics/SVG/1.1/DTD/svg11.dtd">
<svg xmlns="http://www.w3.org/2000/svg" version="1.1" width="608px" height="411px" style="shape-rendering:geometricPrecision; text-rendering:geometricPrecision; image-rendering:optimizeQuality; fill-rule:evenodd; clip-rule:evenodd" xmlns:xlink="http://www.w3.org/1999/xlink">
<g><path style="opacity:0.408" fill="#8b8f94" d="M 303.5,61.5 C 302.833,61.5 302.167,61.5 301.5,61.5C 302.548,59.0673 303.214,59.0673 303.5,61.5 Z"/></g>
<g><path style="opacity:1" fill="#fcfcfc" d="M 301.5,61.5 C 302.167,61.5 302.833,61.5 303.5,61.5C 304.338,61.8417 304.672,62.5084 304.5,63.5C 304.427,65.0269 305.094,66.0269 306.5,66.5C 307.674,67.5137 308.34,68.847 308.5,70.5C 308.427,72.0269 309.094,73.0269 310.5,73.5C 311.338,73.8417 311.672,74.5084 311.5,75.5C 311.427,77.0269 312.094,78.0269 313.5,78.5C 314.338,78.8417 314.672,79.5084 314.5,80.5C 314.427,82.0269 315.094,83.0269 316.5,83.5C 316.5,83.8333 316.5,84.1667 316.5,84.5C 316.427,86.0269 317.094,87.0269 318.5,87.5C 318.427,89.0269 319.094,90.0269 320.5,90.5C 321.674,91.5137 322.34,92.847 322.5,94.5C 322.427,96.0269 323.094,97.0269 324.5,97.5C 325.674,98.5137 326.34,99.847 326.5,101.5C 326.427,103.027 327.094,104.027 328.5,104.5C 329.674,105.514 330.34,106.847 330.5,108.5C 330.427,110.027 331.094,111.027 332.5,111.5C 333.338,111.842 333.672,112.508 333.5,113.5C 333.427,115.027 334.094,116.027 335.5,116.5C 337.008,118.181 338.008,120.181 338.5,122.5C 338.427,124.027 339.094,125.027 340.5,125.5C 341.338,125.842 341.672,126.508 341.5,127.5C 341.427,129.027 342.094,130.027 343.5,130.5C 345.008,132.181 346.008,134.181 346.5,136.5C 346.427,138.027 347.094,139.027 348.5,139.5C 349.674,140.514 350.34,141.847 350.5,143.5C 350.427,145.027 351.094,146.027 352.5,146.5C 352.427,148.027 353.094,149.027 354.5,149.5C 355.674,150.514 356.34,151.847 356.5,153.5C 356.427,155.027 357.094,156.027 358.5,156.5C 359.674,157.514 360.34,158.847 360.5,160.5C 360.427,162.027 361.094,163.027 362.5,163.5C 363.338,163.842 363.672,164.508 363.5,165.5C 363.427,167.027 364.094,168.027 365.5,168.5C 367.008,170.181 368.008,172.181 368.5,174.5C 368.427,176.027 369.094,177.027 370.5,177.5C 371.338,177.842 371.672,178.508 371.5,179.5C 371.427,181.027 372.094,182.027 373.5,182.5C 375.008,184.181 376.008,186.181 376.5,188.5C 376.427,190.027 377.094,191.027 378.5,191.5C 379.674,192.514 380.34,193.847 380.5,195.5C 380.427,197.027 381.094,198.027 382.5,198.5C 382.427,200.027 383.094,201.027 384.5,201.5C 385.674,202.514 386.34,203.847 386.5,205.5C 386.427,207.027 387.094,208.027 388.5,208.5C 389.674,209.514 390.34,210.847 390.5,212.5C 390.427,214.027 391.094,215.027 392.5,215.5C 393.338,215.842 393.672,216.508 393.5,217.5C 393.427,219.027 394.094,220.027 395.5,220.5C 397.008,222.181 398.008,224.181 398.5,226.5C 398.427,228.027 399.094,229.027 400.5,229.5C 401.674,230.514 402.34,231.847 402.5,233.5C 402.427,235.027 403.094,236.027 404.5,236.5C 405.338,236.842 405.672,237.508 405.5,238.5C 405.427,240.027 406.094,241.027 407.5,241.5C 409.008,243.181 410.008,245.181 410.5,247.5C 410.427,249.027 411.094,250.027 412.5,250.5C 412.427,252.027 413.094,253.027 414.5,253.5C 416.008,255.181 417.008,257.181 417.5,259.5C 417.427,261.027 418.094,262.027 419.5,262.5C 420.338,262.842 420.672,263.508 420.5,264.5C 420.427,266.027 421.094,267.027 422.5,267.5C 423.338,267.842 423.672,268.508 423.5,269.5C 423.427,271.027 424.094,272.027 425.5,272.5C 427.008,274.181 428.008,276.181 428.5,278.5C 428.427,280.027 429.094,281.027 430.5,281.5C 431.674,282.514 432.34,283.847 432.5,285.5C 432.427,287.027 433.094,288.027 434.5,288.5C 435.338,288.842 435.672,289.508 435.5,290.5C 435.427,292.027 436.094,293.027 437.5,293.5C 439.008,295.181 440.008,297.181 440.5,299.5C 440.427,301.027 441.094,302.027 442.5,302.5C 383.668,303.665 324.668,303.832 265.5,303C 266.252,302.329 266.586,301.496 266.5,300.5C 266.328,299.508 266.662,298.842 267.5,298.5C 268.906,298.027 269.573,297.027 269.5,295.5C 269.992,293.181 270.992,291.181 272.5,289.5C 273.906,289.027 274.573,288.027 274.5,286.5C 274.328,285.508 274.662,284.842 275.5,284.5C 276.906,284.027 277.573,283.027 277.5,281.5C 277.66,279.847 278.326,278.514 279.5,277.5C 280.906,277.027 281.573,276.027 281.5,274.5C 281.66,272.847 282.326,271.514 283.5,270.5C 284.906,270.027 285.573,269.027 285.5,267.5C 316.1,266.841 346.767,266.174 377.5,265.5C 377.376,264.893 377.043,264.56 376.5,264.5C 375.599,263.71 374.932,262.71 374.5,261.5C 374.715,259.821 374.048,258.821 372.5,258.5C 371.471,256.483 370.471,254.483 369.5,252.5C 369.715,250.821 369.048,249.821 367.5,249.5C 366.662,249.158 366.328,248.492 366.5,247.5C 366.715,245.821 366.048,244.821 364.5,244.5C 363.471,242.483 362.471,240.483 361.5,238.5C 361.13,235.733 359.796,233.733 357.5,232.5C 356.471,230.483 355.471,228.483 354.5,226.5C 354.715,224.821 354.048,223.821 352.5,223.5C 349.469,219.113 346.803,214.446 344.5,209.5C 344.715,207.821 344.048,206.821 342.5,206.5C 341.471,204.483 340.471,202.483 339.5,200.5C 339.715,198.821 339.048,197.821 337.5,197.5C 335.25,194.001 333.25,190.335 331.5,186.5C 331.573,184.973 330.906,183.973 329.5,183.5C 327.568,180.634 325.901,177.634 324.5,174.5C 324.715,172.821 324.048,171.821 322.5,171.5C 317.902,163.968 313.568,156.302 309.5,148.5C 309.715,146.821 309.048,145.821 307.5,145.5C 307.167,144.833 306.833,144.167 306.5,143.5C 306.715,141.821 306.048,140.821 304.5,140.5C 303.833,139.167 303.167,137.833 302.5,136.5C 302.715,134.821 302.048,133.821 300.5,133.5C 298.234,129.966 296.234,126.3 294.5,122.5C 294.715,120.821 294.048,119.821 292.5,119.5C 290.568,116.634 288.901,113.634 287.5,110.5C 287.715,108.821 287.048,107.821 285.5,107.5C 284.833,106.167 284.167,104.833 283.5,103.5C 283.715,101.821 283.048,100.821 281.5,100.5C 280.356,97.4335 281.023,94.7668 283.5,92.5C 284.906,92.0269 285.573,91.0269 285.5,89.5C 285.66,87.847 286.326,86.5137 287.5,85.5C 288.906,85.0269 289.573,84.0269 289.5,82.5C 289.66,80.847 290.326,79.5137 291.5,78.5C 292.906,78.0269 293.573,77.0269 293.5,75.5C 293.66,73.847 294.326,72.5137 295.5,71.5C 296.906,71.0269 297.573,70.0269 297.5,68.5C 297.66,66.847 298.326,65.5137 299.5,64.5C 300.906,64.0269 301.573,63.0269 301.5,61.5 Z"/></g>
<g><path style="opacity:0.325" fill="#858a8f" d="M 301.5,61.5 C 301.573,63.0269 300.906,64.0269 299.5,64.5C 299.427,62.9731 300.094,61.9731 301.5,61.5 Z"/></g>
<g><path style="opacity:0.278" fill="#7e8288" d="M 304.5,63.5 C 305.906,63.9731 306.573,64.9731 306.5,66.5C 305.094,66.0269 304.427,65.0269 304.5,63.5 Z"/></g>
<g><path style="opacity:0.404" fill="#91949a" d="M 297.5,68.5 C 297.573,70.0269 296.906,71.0269 295.5,71.5C 295.427,69.9731 296.094,68.9731 297.5,68.5 Z"/></g>
<g><path style="opacity:0.388" fill="#8b9095" d="M 308.5,70.5 C 309.906,70.9731 310.573,71.9731 310.5,73.5C 309.094,73.0269 308.427,72.0269 308.5,70.5 Z"/></g>
<g><path style="opacity:0.392" fill="#8e9297" d="M 293.5,75.5 C 293.573,77.0269 292.906,78.0269 291.5,78.5C 291.427,76.9731 292.094,75.9731 293.5,75.5 Z"/></g>
<g><path style="opacity:0.251" fill="#797e84" d="M 311.5,75.5 C 312.906,75.9731 313.573,76.9731 313.5,78.5C 312.094,78.0269 311.427,77.0269 311.5,75.5 Z"/></g>
<g><path style="opacity:0.2" fill="#6f747b" d="M 314.5,80.5 C 315.906,80.9731 316.573,81.9731 316.5,83.5C 315.094,83.0269 314.427,82.0269 314.5,80.5 Z"/></g>
<g><path style="opacity:0.38" fill="#8f9398" d="M 289.5,82.5 C 289.573,84.0269 288.906,85.0269 287.5,85.5C 287.427,83.9731 288.094,82.9731 289.5,82.5 Z"/></g>
<g><path style="opacity:0.427" fill="#93989c" d="M 316.5,84.5 C 317.906,84.9731 318.573,85.9731 318.5,87.5C 317.094,87.0269 316.427,86.0269 316.5,84.5 Z"/></g>
<g><path style="opacity:0.212" fill="#73787f" d="M 318.5,87.5 C 319.906,87.9731 320.573,88.9731 320.5,90.5C 319.094,90.0269 318.427,89.0269 318.5,87.5 Z"/></g>
<g><path style="opacity:0.42" fill="#91959a" d="M 285.5,89.5 C 285.573,91.0269 284.906,92.0269 283.5,92.5C 283.427,90.9731 284.094,89.9731 285.5,89.5 Z"/></g>
<g><path style="opacity:0.251" fill="#777c83" d="M 322.5,94.5 C 323.906,94.9731 324.573,95.9731 324.5,97.5C 323.094,97.0269 322.427,96.0269 322.5,94.5 Z"/></g>
<g><path style="opacity:0.867" fill="#a3a7ab" d="M 281.5,100.5 C 283.048,100.821 283.715,101.821 283.5,103.5C 282.599,102.71 281.932,101.71 281.5,100.5 Z"/></g>
<g><path style="opacity:0.227" fill="#787d83" d="M 326.5,101.5 C 327.906,101.973 328.573,102.973 328.5,104.5C 327.094,104.027 326.427,103.027 326.5,101.5 Z"/></g>
<g><path style="opacity:0.498" fill="#7e8489" d="M 278.5,106.5 C 277.5,105.167 276.5,105.167 275.5,106.5C 276.5,102.5 277.5,102.5 278.5,106.5 Z"/></g>
<g><path style="opacity:1" fill="#fafafa" d="M 278.5,106.5 C 279.674,107.514 280.34,108.847 280.5,110.5C 280.427,112.027 281.094,113.027 282.5,113.5C 282.427,115.027 283.094,116.027 284.5,116.5C 286.008,118.181 287.008,120.181 287.5,122.5C 287.427,124.027 288.094,125.027 289.5,125.5C 290.338,125.842 290.672,126.508 290.5,127.5C 290.427,129.027 291.094,130.027 292.5,130.5C 293.6,131.605 294.267,132.938 294.5,134.5C 294.427,136.027 295.094,137.027 296.5,137.5C 297.338,137.842 297.672,138.508 297.5,139.5C 297.427,141.027 298.094,142.027 299.5,142.5C 301.008,144.181 302.008,146.181 302.5,148.5C 302.427,150.027 303.094,151.027 304.5,151.5C 305.338,151.842 305.672,152.508 305.5,153.5C 305.427,155.027 306.094,156.027 307.5,156.5C 309.008,158.181 310.008,160.181 310.5,162.5C 310.427,164.027 311.094,165.027 312.5,165.5C 312.427,167.027 313.094,168.027 314.5,168.5C 314.5,168.833 314.5,169.167 314.5,169.5C 314.427,171.027 315.094,172.027 316.5,172.5C 316.427,174.027 317.094,175.027 318.5,175.5C 319.674,176.514 320.34,177.847 320.5,179.5C 320.427,181.027 321.094,182.027 322.5,182.5C 323.6,183.605 324.267,184.938 324.5,186.5C 324.427,188.027 325.094,189.027 326.5,189.5C 328.008,191.181 329.008,193.181 329.5,195.5C 329.427,197.027 330.094,198.027 331.5,198.5C 332.338,198.842 332.672,199.508 332.5,200.5C 332.427,202.027 333.094,203.027 334.5,203.5C 335.338,203.842 335.672,204.508 335.5,205.5C 335.427,207.027 336.094,208.027 337.5,208.5C 339.008,210.181 340.008,212.181 340.5,214.5C 340.427,216.027 341.094,217.027 342.5,217.5C 343.674,218.514 344.34,219.847 344.5,221.5C 344.427,223.027 345.094,224.027 346.5,224.5C 347.338,224.842 347.672,225.508 347.5,226.5C 347.427,228.027 348.094,229.027 349.5,229.5C 350.338,229.842 350.672,230.508 350.5,231.5C 350.427,233.027 351.094,234.027 352.5,234.5C 352.5,234.833 352.5,235.167 352.5,235.5C 352.427,237.027 353.094,238.027 354.5,238.5C 354.427,240.027 355.094,241.027 356.5,241.5C 358.008,243.181 359.008,245.181 359.5,247.5C 359.427,249.027 360.094,250.027 361.5,250.5C 362.338,250.842 362.672,251.508 362.5,252.5C 362.427,254.027 363.094,255.027 364.5,255.5C 365.338,255.842 365.672,256.508 365.5,257.5C 358.508,258.166 351.341,258.5 344,258.5C 336.003,258.435 328.17,257.768 320.5,256.5C 319.471,254.483 318.471,252.483 317.5,250.5C 317.13,247.733 315.796,245.733 313.5,244.5C 312.471,242.483 311.471,240.483 310.5,238.5C 310.715,236.821 310.048,235.821 308.5,235.5C 304.997,230.498 301.997,225.165 299.5,219.5C 299.715,217.821 299.048,216.821 297.5,216.5C 296.326,215.486 295.66,214.153 295.5,212.5C 295.573,210.973 294.906,209.973 293.5,209.5C 293.715,207.821 293.048,206.821 291.5,206.5C 290.471,204.483 289.471,202.483 288.5,200.5C 288.715,198.821 288.048,197.821 286.5,197.5C 283.469,193.113 280.803,188.446 278.5,183.5C 278.719,182.325 278.386,181.325 277.5,180.5C 276.893,180.624 276.56,180.957 276.5,181.5C 275.094,181.973 274.427,182.973 274.5,184.5C 272.75,188.335 270.75,192.001 268.5,195.5C 267.094,195.973 266.427,196.973 266.5,198.5C 265.083,201.669 263.417,204.669 261.5,207.5C 259.75,208.659 258.75,210.326 258.5,212.5C 254.738,219.698 250.738,226.698 246.5,233.5C 245.094,233.973 244.427,234.973 244.5,236.5C 223.416,273.671 202.083,310.671 180.5,347.5C 165.794,348.15 151.461,347.483 137.5,345.5C 138.584,342.996 139.917,340.663 141.5,338.5C 142.906,338.027 143.573,337.027 143.5,335.5C 143.66,333.847 144.326,332.514 145.5,331.5C 146.906,331.027 147.573,330.027 147.5,328.5C 147.66,326.847 148.326,325.514 149.5,324.5C 150.906,324.027 151.573,323.027 151.5,321.5C 151.66,319.847 152.326,318.514 153.5,317.5C 154.906,317.027 155.573,316.027 155.5,314.5C 155.328,313.508 155.662,312.842 156.5,312.5C 157.906,312.027 158.573,311.027 158.5,309.5C 158.66,307.847 159.326,306.514 160.5,305.5C 161.906,305.027 162.573,304.027 162.5,302.5C 162.66,300.847 163.326,299.514 164.5,298.5C 165.906,298.027 166.573,297.027 166.5,295.5C 166.66,293.847 167.326,292.514 168.5,291.5C 169.906,291.027 170.573,290.027 170.5,288.5C 170.328,287.508 170.662,286.842 171.5,286.5C 172.906,286.027 173.573,285.027 173.5,283.5C 173.992,281.181 174.992,279.181 176.5,277.5C 177.906,277.027 178.573,276.027 178.5,274.5C 180.408,273.514 181.408,271.848 181.5,269.5C 181.66,267.847 182.326,266.514 183.5,265.5C 184.906,265.027 185.573,264.027 185.5,262.5C 185.328,261.508 185.662,260.842 186.5,260.5C 187.906,260.027 188.573,259.027 188.5,257.5C 188.66,255.847 189.326,254.514 190.5,253.5C 191.906,253.027 192.573,252.027 192.5,250.5C 192.66,248.847 193.326,247.514 194.5,246.5C 195.906,246.027 196.573,245.027 196.5,243.5C 196.66,241.847 197.326,240.514 198.5,239.5C 199.906,239.027 200.573,238.027 200.5,236.5C 200.328,235.508 200.662,234.842 201.5,234.5C 202.906,234.027 203.573,233.027 203.5,231.5C 203.992,229.181 204.992,227.181 206.5,225.5C 207.906,225.027 208.573,224.027 208.5,222.5C 208.328,221.508 208.662,220.842 209.5,220.5C 210.906,220.027 211.573,219.027 211.5,217.5C 211.66,215.847 212.326,214.514 213.5,213.5C 214.906,213.027 215.573,212.027 215.5,210.5C 215.328,209.508 215.662,208.842 216.5,208.5C 217.906,208.027 218.573,207.027 218.5,205.5C 218.66,203.847 219.326,202.514 220.5,201.5C 221.906,201.027 222.573,200.027 222.5,198.5C 222.328,197.508 222.662,196.842 223.5,196.5C 224.906,196.027 225.573,195.027 225.5,193.5C 225.992,191.181 226.992,189.181 228.5,187.5C 229.906,187.027 230.573,186.027 230.5,184.5C 230.328,183.508 230.662,182.842 231.5,182.5C 232.906,182.027 233.573,181.027 233.5,179.5C 233.66,177.847 234.326,176.514 235.5,175.5C 236.906,175.027 237.573,174.027 237.5,172.5C 237.66,170.847 238.326,169.514 239.5,168.5C 240.906,168.027 241.573,167.027 241.5,165.5C 241.66,163.847 242.326,162.514 243.5,161.5C 244.906,161.027 245.573,160.027 245.5,158.5C 245.328,157.508 245.662,156.842 246.5,156.5C 247.906,156.027 248.573,155.027 248.5,153.5C 248.66,151.847 249.326,150.514 250.5,149.5C 251.906,149.027 252.573,148.027 252.5,146.5C 252.328,145.508 252.662,144.842 253.5,144.5C 254.906,144.027 255.573,143.027 255.5,141.5C 255.992,139.181 256.992,137.181 258.5,135.5C 259.906,135.027 260.573,134.027 260.5,132.5C 260.328,131.508 260.662,130.842 261.5,130.5C 262.906,130.027 263.573,129.027 263.5,127.5C 263.66,125.847 264.326,124.514 265.5,123.5C 266.906,123.027 267.573,122.027 267.5,120.5C 268.774,117.24 270.44,114.24 272.5,111.5C 273.906,111.027 274.573,110.027 274.5,108.5C 274.328,107.508 274.662,106.842 275.5,106.5C 276.5,105.167 277.5,105.167 278.5,106.5 Z"/></g>
<g><path style="opacity:0.851" fill="#9ea2a6" d="M 285.5,107.5 C 287.048,107.821 287.715,108.821 287.5,110.5C 286.599,109.71 285.932,108.71 285.5,107.5 Z"/></g>
<g><path style="opacity:0.404" fill="#90949a" d="M 274.5,108.5 C 274.573,110.027 273.906,111.027 272.5,111.5C 272.427,109.973 273.094,108.973 274.5,108.5 Z"/></g>
<g><path style="opacity:0.333" fill="#83878d" d="M 330.5,108.5 C 331.906,108.973 332.573,109.973 332.5,111.5C 331.094,111.027 330.427,110.027 330.5,108.5 Z"/></g>
<g><path style="opacity:0.388" fill="#8e9397" d="M 280.5,110.5 C 281.906,110.973 282.573,111.973 282.5,113.5C 281.094,113.027 280.427,112.027 280.5,110.5 Z"/></g>
<g><path style="opacity:0.176" fill="#6f757b" d="M 282.5,113.5 C 283.906,113.973 284.573,114.973 284.5,116.5C 283.094,116.027 282.427,115.027 282.5,113.5 Z"/></g>
<g><path style="opacity:0.204" fill="#72787e" d="M 333.5,113.5 C 334.906,113.973 335.573,114.973 335.5,116.5C 334.094,116.027 333.427,115.027 333.5,113.5 Z"/></g>
<g><path style="opacity:0.906" fill="#a5a9ad" d="M 292.5,119.5 C 294.048,119.821 294.715,120.821 294.5,122.5C 293.599,121.71 292.932,120.71 292.5,119.5 Z"/></g>
<g><path style="opacity:0.373" fill="#8a8e94" d="M 267.5,120.5 C 267.573,122.027 266.906,123.027 265.5,123.5C 265.427,121.973 266.094,120.973 267.5,120.5 Z"/></g>
<g><path style="opacity:0.349" fill="#888d91" d="M 287.5,122.5 C 288.906,122.973 289.573,123.973 289.5,125.5C 288.094,125.027 287.427,124.027 287.5,122.5 Z"/></g>
<g><path style="opacity:0.376" fill="#8b8f94" d="M 338.5,122.5 C 339.906,122.973 340.573,123.973 340.5,125.5C 339.094,125.027 338.427,124.027 338.5,122.5 Z"/></g>
<g><path style="opacity:0.416" fill="#8f9398" d="M 263.5,127.5 C 263.573,129.027 262.906,130.027 261.5,130.5C 261.427,128.973 262.094,127.973 263.5,127.5 Z"/></g>
<g><path style="opacity:0.216" fill="#757a81" d="M 290.5,127.5 C 291.906,127.973 292.573,128.973 292.5,130.5C 291.094,130.027 290.427,129.027 290.5,127.5 Z"/></g>
<g><path style="opacity:0.243" fill="#797d84" d="M 341.5,127.5 C 342.906,127.973 343.573,128.973 343.5,130.5C 342.094,130.027 341.427,129.027 341.5,127.5 Z"/></g>
<g><path style="opacity:0.882" fill="#a1a5a8" d="M 300.5,133.5 C 302.048,133.821 302.715,134.821 302.5,136.5C 301.599,135.71 300.932,134.71 300.5,133.5 Z"/></g>
<g><path style="opacity:0.325" fill="#82878c" d="M 260.5,132.5 C 260.573,134.027 259.906,135.027 258.5,135.5C 258.427,133.973 259.094,132.973 260.5,132.5 Z"/></g>
<g><path style="opacity:0.314" fill="#80868b" d="M 294.5,134.5 C 295.906,134.973 296.573,135.973 296.5,137.5C 295.094,137.027 294.427,136.027 294.5,134.5 Z"/></g>
<g><path style="opacity:0.4" fill="#92969b" d="M 346.5,136.5 C 347.906,136.973 348.573,137.973 348.5,139.5C 347.094,139.027 346.427,138.027 346.5,136.5 Z"/></g>
<g><path style="opacity:0.859" fill="#9ea2a7" d="M 304.5,140.5 C 306.048,140.821 306.715,141.821 306.5,143.5C 305.599,142.71 304.932,141.71 304.5,140.5 Z"/></g>
<g><path style="opacity:0.173" fill="#6e737a" d="M 297.5,139.5 C 298.906,139.973 299.573,140.973 299.5,142.5C 298.094,142.027 297.427,141.027 297.5,139.5 Z"/></g>
<g><path style="opacity:0.498" fill="#9a9ea3" d="M 255.5,141.5 C 255.573,143.027 254.906,144.027 253.5,144.5C 253.427,142.973 254.094,141.973 255.5,141.5 Z"/></g>
<g><path style="opacity:0.933" fill="#a9abb0" d="M 307.5,145.5 C 309.048,145.821 309.715,146.821 309.5,148.5C 308.599,147.71 307.932,146.71 307.5,145.5 Z"/></g>
<g><path style="opacity:0.447" fill="#979b9f" d="M 350.5,143.5 C 351.906,143.973 352.573,144.973 352.5,146.5C 351.094,146.027 350.427,145.027 350.5,143.5 Z"/></g>
<g><path style="opacity:0.361" fill="#888d92" d="M 252.5,146.5 C 252.573,148.027 251.906,149.027 250.5,149.5C 250.427,147.973 251.094,146.973 252.5,146.5 Z"/></g>
<g><path style="opacity:0.259" fill="#787d84" d="M 352.5,146.5 C 353.906,146.973 354.573,147.973 354.5,149.5C 353.094,149.027 352.427,148.027 352.5,146.5 Z"/></g>
<g><path style="opacity:0.349" fill="#878c91" d="M 302.5,148.5 C 303.906,148.973 304.573,149.973 304.5,151.5C 303.094,151.027 302.427,150.027 302.5,148.5 Z"/></g>
<g><path style="opacity:0.431" fill="#8f9499" d="M 248.5,153.5 C 248.573,155.027 247.906,156.027 246.5,156.5C 246.427,154.973 247.094,153.973 248.5,153.5 Z"/></g>
<g><path style="opacity:0.216" fill="#747a80" d="M 305.5,153.5 C 306.906,153.973 307.573,154.973 307.5,156.5C 306.094,156.027 305.427,155.027 305.5,153.5 Z"/></g>
<g><path style="opacity:0.224" fill="#787c83" d="M 356.5,153.5 C 357.906,153.973 358.573,154.973 358.5,156.5C 357.094,156.027 356.427,155.027 356.5,153.5 Z"/></g>
<g><path style="opacity:0.314" fill="#7f858a" d="M 245.5,158.5 C 245.573,160.027 244.906,161.027 243.5,161.5C 243.427,159.973 244.094,158.973 245.5,158.5 Z"/></g>
<g><path style="opacity:0.325" fill="#83878d" d="M 360.5,160.5 C 361.906,160.973 362.573,161.973 362.5,163.5C 361.094,163.027 360.427,162.027 360.5,160.5 Z"/></g>
<g><path style="opacity:0.365" fill="#8c9095" d="M 310.5,162.5 C 311.906,162.973 312.573,163.973 312.5,165.5C 311.094,165.027 310.427,164.027 310.5,162.5 Z"/></g>
<g><path style="opacity:0.361" fill="#84898e" d="M 241.5,165.5 C 241.573,167.027 240.906,168.027 239.5,168.5C 239.427,166.973 240.094,165.973 241.5,165.5 Z"/></g>
<g><path style="opacity:0.145" fill="#6c7279" d="M 312.5,165.5 C 313.906,165.973 314.573,166.973 314.5,168.5C 313.094,168.027 312.427,167.027 312.5,165.5 Z"/></g>
<g><path style="opacity:0.184" fill="#70767c" d="M 363.5,165.5 C 364.906,165.973 365.573,166.973 365.5,168.5C 364.094,168.027 363.427,167.027 363.5,165.5 Z"/></g>
<g><path style="opacity:0.439" fill="#94989d" d="M 314.5,169.5 C 315.906,169.973 316.573,170.973 316.5,172.5C 315.094,172.027 314.427,171.027 314.5,169.5 Z"/></g>
<g><path style="opacity:0.894" fill="#a7abaf" d="M 322.5,171.5 C 324.048,171.821 324.715,172.821 324.5,174.5C 323.599,173.71 322.932,172.71 322.5,171.5 Z"/></g>
<g><path style="opacity:0.341" fill="#868a8f" d="M 237.5,172.5 C 237.573,174.027 236.906,175.027 235.5,175.5C 235.427,173.973 236.094,172.973 237.5,172.5 Z"/></g>
<g><path style="opacity:0.263" fill="#797d84" d="M 316.5,172.5 C 317.906,172.973 318.573,173.973 318.5,175.5C 317.094,175.027 316.427,174.027 316.5,172.5 Z"/></g>
<g><path style="opacity:0.357" fill="#898e94" d="M 368.5,174.5 C 369.906,174.973 370.573,175.973 370.5,177.5C 369.094,177.027 368.427,176.027 368.5,174.5 Z"/></g>
<g><path style="opacity:0.875" fill="#9ca1a5" d="M 276.5,181.5 C 276.56,180.957 276.893,180.624 277.5,180.5C 278.386,181.325 278.719,182.325 278.5,183.5C 277.833,182.833 277.167,182.167 276.5,181.5 Z"/></g>
<g><path style="opacity:0.431" fill="#8f9399" d="M 233.5,179.5 C 233.573,181.027 232.906,182.027 231.5,182.5C 231.427,180.973 232.094,179.973 233.5,179.5 Z"/></g>
<g><path style="opacity:0.212" fill="#747a80" d="M 320.5,179.5 C 321.906,179.973 322.573,180.973 322.5,182.5C 321.094,182.027 320.427,181.027 320.5,179.5 Z"/></g>
<g><path style="opacity:0.227" fill="#767b82" d="M 371.5,179.5 C 372.906,179.973 373.573,180.973 373.5,182.5C 372.094,182.027 371.427,181.027 371.5,179.5 Z"/></g>
<g><path style="opacity:0.2" fill="#757b81" d="M 276.5,181.5 C 276.573,183.027 275.906,184.027 274.5,184.5C 274.427,182.973 275.094,181.973 276.5,181.5 Z"/></g>
<g><path style="opacity:0.169" fill="#73797f" d="M 329.5,183.5 C 330.906,183.973 331.573,184.973 331.5,186.5C 330.094,186.027 329.427,185.027 329.5,183.5 Z"/></g>
<g><path style="opacity:0.31" fill="#7e8389" d="M 230.5,184.5 C 230.573,186.027 229.906,187.027 228.5,187.5C 228.427,185.973 229.094,184.973 230.5,184.5 Z"/></g>
<g><path style="opacity:0.29" fill="#7e8389" d="M 324.5,186.5 C 325.906,186.973 326.573,187.973 326.5,189.5C 325.094,189.027 324.427,188.027 324.5,186.5 Z"/></g>
<g><path style="opacity:0.373" fill="#8f9398" d="M 376.5,188.5 C 377.906,188.973 378.573,189.973 378.5,191.5C 377.094,191.027 376.427,190.027 376.5,188.5 Z"/></g>
<g><path style="opacity:0.745" fill="#a0a4a8" d="M 278.5,196.5 C 277.167,195.167 275.833,195.167 274.5,196.5C 275.833,192.5 277.167,192.5 278.5,196.5 Z"/></g>
<g><path style="opacity:0.498" fill="#9a9ea3" d="M 225.5,193.5 C 225.573,195.027 224.906,196.027 223.5,196.5C 223.427,194.973 224.094,193.973 225.5,193.5 Z"/></g>
<g><path style="opacity:1" fill="#fcfdfd" d="M 278.5,196.5 C 279.674,197.514 280.34,198.847 280.5,200.5C 280.427,202.027 281.094,203.027 282.5,203.5C 282.427,205.027 283.094,206.027 284.5,206.5C 284.5,206.833 284.5,207.167 284.5,207.5C 284.427,209.027 285.094,210.027 286.5,210.5C 287.338,210.842 287.672,211.508 287.5,212.5C 287.427,214.027 288.094,215.027 289.5,215.5C 290.338,215.842 290.672,216.508 290.5,217.5C 290.427,219.027 291.094,220.027 292.5,220.5C 294.008,222.181 295.008,224.181 295.5,226.5C 295.427,228.027 296.094,229.027 297.5,229.5C 298.598,230.601 298.765,231.934 298,233.5C 283.808,257.893 269.641,282.226 255.5,306.5C 254.094,306.973 253.427,307.973 253.5,309.5C 252.957,309.56 252.624,309.893 252.5,310.5C 317.497,311.5 382.497,311.833 447.5,311.5C 447.427,313.027 448.094,314.027 449.5,314.5C 450.338,314.842 450.672,315.508 450.5,316.5C 450.427,318.027 451.094,319.027 452.5,319.5C 453.674,320.514 454.34,321.847 454.5,323.5C 454.427,325.027 455.094,326.027 456.5,326.5C 457.674,327.514 458.34,328.847 458.5,330.5C 458.427,332.027 459.094,333.027 460.5,333.5C 461.674,334.514 462.34,335.847 462.5,337.5C 462.427,339.027 463.094,340.027 464.5,340.5C 465.338,340.842 465.672,341.508 465.5,342.5C 465.427,344.027 466.094,345.027 467.5,345.5C 421.338,346.833 374.838,347.5 328,347.5C 281.162,347.5 234.662,346.833 188.5,345.5C 189.584,342.996 190.917,340.663 192.5,338.5C 193.906,338.027 194.573,337.027 194.5,335.5C 194.66,333.847 195.326,332.514 196.5,331.5C 197.906,331.027 198.573,330.027 198.5,328.5C 198.66,326.847 199.326,325.514 200.5,324.5C 201.906,324.027 202.573,323.027 202.5,321.5C 202.328,320.508 202.662,319.842 203.5,319.5C 204.906,319.027 205.573,318.027 205.5,316.5C 205.66,314.847 206.326,313.514 207.5,312.5C 208.906,312.027 209.573,311.027 209.5,309.5C 209.66,307.847 210.326,306.514 211.5,305.5C 212.906,305.027 213.573,304.027 213.5,302.5C 213.66,300.847 214.326,299.514 215.5,298.5C 216.906,298.027 217.573,297.027 217.5,295.5C 217.328,294.508 217.662,293.842 218.5,293.5C 219.906,293.027 220.573,292.027 220.5,290.5C 220.66,288.847 221.326,287.514 222.5,286.5C 223.906,286.027 224.573,285.027 224.5,283.5C 224.992,281.181 225.992,279.181 227.5,277.5C 228.906,277.027 229.573,276.027 229.5,274.5C 230.906,274.027 231.573,273.027 231.5,271.5C 231.66,269.847 232.326,268.514 233.5,267.5C 234.906,267.027 235.573,266.027 235.5,264.5C 235.66,262.847 236.326,261.514 237.5,260.5C 238.906,260.027 239.573,259.027 239.5,257.5C 239.66,255.847 240.326,254.514 241.5,253.5C 242.906,253.027 243.573,252.027 243.5,250.5C 243.328,249.508 243.662,248.842 244.5,248.5C 245.906,248.027 246.573,247.027 246.5,245.5C 246.992,243.181 247.992,241.181 249.5,239.5C 250.906,239.027 251.573,238.027 251.5,236.5C 251.328,235.508 251.662,234.842 252.5,234.5C 253.906,234.027 254.573,233.027 254.5,231.5C 254.66,229.847 255.326,228.514 256.5,227.5C 257.906,227.027 258.573,226.027 258.5,224.5C 258.328,223.508 258.662,222.842 259.5,222.5C 260.906,222.027 261.573,221.027 261.5,219.5C 261.66,217.847 262.326,216.514 263.5,215.5C 264.906,215.027 265.573,214.027 265.5,212.5C 265.328,211.508 265.662,210.842 266.5,210.5C 267.906,210.027 268.573,209.027 268.5,207.5C 268.66,205.847 269.326,204.514 270.5,203.5C 271.906,203.027 272.573,202.027 272.5,200.5C 272.66,198.847 273.326,197.514 274.5,196.5C 275.833,195.167 277.167,195.167 278.5,196.5 Z"/></g>
<g><path style="opacity:0.165" fill="#6e747a" d="M 268.5,195.5 C 268.573,197.027 267.906,198.027 266.5,198.5C 266.427,196.973 267.094,195.973 268.5,195.5 Z"/></g>
<g><path style="opacity:0.914" fill="#a9adb0" d="M 286.5,197.5 C 288.048,197.821 288.715,198.821 288.5,200.5C 287.599,199.71 286.932,198.71 286.5,197.5 Z"/></g>
<g><path style="opacity:0.443" fill="#95999e" d="M 329.5,195.5 C 330.906,195.973 331.573,196.973 331.5,198.5C 330.094,198.027 329.427,197.027 329.5,195.5 Z"/></g>
<g><path style="opacity:0.925" fill="#abaeb1" d="M 337.5,197.5 C 339.048,197.821 339.715,198.821 339.5,200.5C 338.599,199.71 337.932,198.71 337.5,197.5 Z"/></g>
<g><path style="opacity:0.463" fill="#989ca1" d="M 380.5,195.5 C 381.906,195.973 382.573,196.973 382.5,198.5C 381.094,198.027 380.427,197.027 380.5,195.5 Z"/></g>
<g><path style="opacity:0.341" fill="#83898e" d="M 222.5,198.5 C 222.573,200.027 221.906,201.027 220.5,201.5C 220.427,199.973 221.094,198.973 222.5,198.5 Z"/></g>
<g><path style="opacity:0.275" fill="#7b8085" d="M 382.5,198.5 C 383.906,198.973 384.573,199.973 384.5,201.5C 383.094,201.027 382.427,200.027 382.5,198.5 Z"/></g>
<g><path style="opacity:0.408" fill="#93969c" d="M 272.5,200.5 C 272.573,202.027 271.906,203.027 270.5,203.5C 270.427,201.973 271.094,200.973 272.5,200.5 Z"/></g>
<g><path style="opacity:0.42" fill="#93989c" d="M 280.5,200.5 C 281.906,200.973 282.573,201.973 282.5,203.5C 281.094,203.027 280.427,202.027 280.5,200.5 Z"/></g>
<g><path style="opacity:0.318" fill="#84898e" d="M 332.5,200.5 C 333.906,200.973 334.573,201.973 334.5,203.5C 333.094,203.027 332.427,202.027 332.5,200.5 Z"/></g>
<g><path style="opacity:0.2" fill="#71777c" d="M 282.5,203.5 C 283.906,203.973 284.573,204.973 284.5,206.5C 283.094,206.027 282.427,205.027 282.5,203.5 Z"/></g>
<g><path style="opacity:0.843" fill="#95989d" d="M 291.5,206.5 C 293.048,206.821 293.715,207.821 293.5,209.5C 292.599,208.71 291.932,207.71 291.5,206.5 Z"/></g>
<g><path style="opacity:0.855" fill="#969b9f" d="M 342.5,206.5 C 344.048,206.821 344.715,207.821 344.5,209.5C 343.599,208.71 342.932,207.71 342.5,206.5 Z"/></g>
<g><path style="opacity:0.427" fill="#8f9398" d="M 218.5,205.5 C 218.573,207.027 217.906,208.027 216.5,208.5C 216.427,206.973 217.094,205.973 218.5,205.5 Z"/></g>
<g><path style="opacity:0.22" fill="#74797f" d="M 335.5,205.5 C 336.906,205.973 337.573,206.973 337.5,208.5C 336.094,208.027 335.427,207.027 335.5,205.5 Z"/></g>
<g><path style="opacity:0.235" fill="#777d82" d="M 386.5,205.5 C 387.906,205.973 388.573,206.973 388.5,208.5C 387.094,208.027 386.427,207.027 386.5,205.5 Z"/></g>
<g><path style="opacity:0.184" fill="#6f747b" d="M 261.5,207.5 C 261.25,209.674 260.25,211.341 258.5,212.5C 258.75,210.326 259.75,208.659 261.5,207.5 Z"/></g>
<g><path style="opacity:0.471" fill="#9a9ea3" d="M 268.5,207.5 C 268.573,209.027 267.906,210.027 266.5,210.5C 266.427,208.973 267.094,207.973 268.5,207.5 Z"/></g>
<g><path style="opacity:0.482" fill="#999da1" d="M 284.5,207.5 C 285.906,207.973 286.573,208.973 286.5,210.5C 285.094,210.027 284.427,209.027 284.5,207.5 Z"/></g>
<g><path style="opacity:0.18" fill="#72777d" d="M 293.5,209.5 C 294.906,209.973 295.573,210.973 295.5,212.5C 294.094,212.027 293.427,211.027 293.5,209.5 Z"/></g>
<g><path style="opacity:0.298" fill="#7c8287" d="M 215.5,210.5 C 215.573,212.027 214.906,213.027 213.5,213.5C 213.427,211.973 214.094,210.973 215.5,210.5 Z"/></g>
<g><path style="opacity:0.341" fill="#868b8f" d="M 265.5,212.5 C 265.573,214.027 264.906,215.027 263.5,215.5C 263.427,213.973 264.094,212.973 265.5,212.5 Z"/></g>
<g><path style="opacity:0.388" fill="#8b8f94" d="M 287.5,212.5 C 288.906,212.973 289.573,213.973 289.5,215.5C 288.094,215.027 287.427,214.027 287.5,212.5 Z"/></g>
<g><path style="opacity:0.306" fill="#81868b" d="M 390.5,212.5 C 391.906,212.973 392.573,213.973 392.5,215.5C 391.094,215.027 390.427,214.027 390.5,212.5 Z"/></g>
<g><path style="opacity:0.929" fill="#a9adb0" d="M 297.5,216.5 C 299.048,216.821 299.715,217.821 299.5,219.5C 298.599,218.71 297.932,217.71 297.5,216.5 Z"/></g>
<g><path style="opacity:0.345" fill="#8a8e94" d="M 340.5,214.5 C 341.906,214.973 342.573,215.973 342.5,217.5C 341.094,217.027 340.427,216.027 340.5,214.5 Z"/></g>
<g><path style="opacity:0.376" fill="#858a8f" d="M 211.5,217.5 C 211.573,219.027 210.906,220.027 209.5,220.5C 209.427,218.973 210.094,217.973 211.5,217.5 Z"/></g>
<g><path style="opacity:0.235" fill="#777d83" d="M 290.5,217.5 C 291.906,217.973 292.573,218.973 292.5,220.5C 291.094,220.027 290.427,219.027 290.5,217.5 Z"/></g>
<g><path style="opacity:0.173" fill="#6f757a" d="M 393.5,217.5 C 394.906,217.973 395.573,218.973 395.5,220.5C 394.094,220.027 393.427,219.027 393.5,217.5 Z"/></g>
<g><path style="opacity:0.435" fill="#92969b" d="M 261.5,219.5 C 261.573,221.027 260.906,222.027 259.5,222.5C 259.427,220.973 260.094,219.973 261.5,219.5 Z"/></g>
<g><path style="opacity:0.443" fill="#95999e" d="M 344.5,221.5 C 345.906,221.973 346.573,222.973 346.5,224.5C 345.094,224.027 344.427,223.027 344.5,221.5 Z"/></g>
<g><path style="opacity:0.886" fill="#a9acb0" d="M 352.5,223.5 C 354.048,223.821 354.715,224.821 354.5,226.5C 353.599,225.71 352.932,224.71 352.5,223.5 Z"/></g>
<g><path style="opacity:0.259" fill="#757a81" d="M 208.5,222.5 C 208.573,224.027 207.906,225.027 206.5,225.5C 206.427,223.973 207.094,222.973 208.5,222.5 Z"/></g>
<g><path style="opacity:0.278" fill="#7d8288" d="M 258.5,224.5 C 258.573,226.027 257.906,227.027 256.5,227.5C 256.427,225.973 257.094,224.973 258.5,224.5 Z"/></g>
<g><path style="opacity:0.431" fill="#93979c" d="M 295.5,226.5 C 296.906,226.973 297.573,227.973 297.5,229.5C 296.094,229.027 295.427,228.027 295.5,226.5 Z"/></g>
<g><path style="opacity:0.286" fill="#82878c" d="M 347.5,226.5 C 348.906,226.973 349.573,227.973 349.5,229.5C 348.094,229.027 347.427,228.027 347.5,226.5 Z"/></g>
<g><path style="opacity:0.329" fill="#868b90" d="M 398.5,226.5 C 399.906,226.973 400.573,227.973 400.5,229.5C 399.094,229.027 398.427,228.027 398.5,226.5 Z"/></g>
<g><path style="opacity:0.859" fill="#8f9498" d="M 357.5,232.5 C 359.796,233.733 361.13,235.733 361.5,238.5C 359.684,236.882 358.351,234.882 357.5,232.5 Z"/></g>
<g><path style="opacity:0.439" fill="#909398" d="M 203.5,231.5 C 203.573,233.027 202.906,234.027 201.5,234.5C 201.427,232.973 202.094,231.973 203.5,231.5 Z"/></g>
<g><path style="opacity:0.408" fill="#8c9096" d="M 254.5,231.5 C 254.573,233.027 253.906,234.027 252.5,234.5C 252.427,232.973 253.094,231.973 254.5,231.5 Z"/></g>
<g><path style="opacity:0.212" fill="#74797f" d="M 350.5,231.5 C 351.906,231.973 352.573,232.973 352.5,234.5C 351.094,234.027 350.427,233.027 350.5,231.5 Z"/></g>
<g><path style="opacity:0.192" fill="#72777d" d="M 246.5,233.5 C 246.573,235.027 245.906,236.027 244.5,236.5C 244.427,234.973 245.094,233.973 246.5,233.5 Z"/></g>
<g><path style="opacity:0.918" fill="#a9acb0" d="M 308.5,235.5 C 310.048,235.821 310.715,236.821 310.5,238.5C 309.599,237.71 308.932,236.71 308.5,235.5 Z"/></g>
<g><path style="opacity:0.4" fill="#8d9197" d="M 402.5,233.5 C 403.906,233.973 404.573,234.973 404.5,236.5C 403.094,236.027 402.427,235.027 402.5,233.5 Z"/></g>
<g><path style="opacity:0.486" fill="#9ca0a4" d="M 352.5,235.5 C 353.906,235.973 354.573,236.973 354.5,238.5C 353.094,238.027 352.427,237.027 352.5,235.5 Z"/></g>
<g><path style="opacity:0.278" fill="#7a7e84" d="M 200.5,236.5 C 200.573,238.027 199.906,239.027 198.5,239.5C 198.427,237.973 199.094,236.973 200.5,236.5 Z"/></g>
<g><path style="opacity:0.267" fill="#777b82" d="M 251.5,236.5 C 251.573,238.027 250.906,239.027 249.5,239.5C 249.427,237.973 250.094,236.973 251.5,236.5 Z"/></g>
<g><path style="opacity:0.263" fill="#7c8186" d="M 354.5,238.5 C 355.906,238.973 356.573,239.973 356.5,241.5C 355.094,241.027 354.427,240.027 354.5,238.5 Z"/></g>
<g><path style="opacity:0.294" fill="#80858a" d="M 405.5,238.5 C 406.906,238.973 407.573,239.973 407.5,241.5C 406.094,241.027 405.427,240.027 405.5,238.5 Z"/></g>
<g><path style="opacity:0.898" fill="#a0a4a8" d="M 364.5,244.5 C 366.048,244.821 366.715,245.821 366.5,247.5C 365.599,246.71 364.932,245.71 364.5,244.5 Z"/></g>
<g><path style="opacity:0.38" fill="#858a8f" d="M 196.5,243.5 C 196.573,245.027 195.906,246.027 194.5,246.5C 194.427,244.973 195.094,243.973 196.5,243.5 Z"/></g>
<g><path style="opacity:0.435" fill="#93979c" d="M 246.5,245.5 C 246.573,247.027 245.906,248.027 244.5,248.5C 244.427,246.973 245.094,245.973 246.5,245.5 Z"/></g>
<g><path style="opacity:0.188" fill="#80858a" d="M 313.5,244.5 C 315.796,245.733 317.13,247.733 317.5,250.5C 315.684,248.882 314.351,246.882 313.5,244.5 Z"/></g>
<g><path style="opacity:0.439" fill="#94989d" d="M 359.5,247.5 C 360.906,247.973 361.573,248.973 361.5,250.5C 360.094,250.027 359.427,249.027 359.5,247.5 Z"/></g>
<g><path style="opacity:0.91" fill="#aaaeb2" d="M 367.5,249.5 C 369.048,249.821 369.715,250.821 369.5,252.5C 368.599,251.71 367.932,250.71 367.5,249.5 Z"/></g>
<g><path style="opacity:0.459" fill="#989ca0" d="M 410.5,247.5 C 411.906,247.973 412.573,248.973 412.5,250.5C 411.094,250.027 410.427,249.027 410.5,247.5 Z"/></g>
<g><path style="opacity:0.329" fill="#81868b" d="M 192.5,250.5 C 192.573,252.027 191.906,253.027 190.5,253.5C 190.427,251.973 191.094,250.973 192.5,250.5 Z"/></g>
<g><path style="opacity:0.318" fill="#7f848a" d="M 243.5,250.5 C 243.573,252.027 242.906,253.027 241.5,253.5C 241.427,251.973 242.094,250.973 243.5,250.5 Z"/></g>
<g><path style="opacity:0.263" fill="#797e84" d="M 412.5,250.5 C 413.906,250.973 414.573,251.973 414.5,253.5C 413.094,253.027 412.427,252.027 412.5,250.5 Z"/></g>
<g><path style="opacity:0.314" fill="#83888d" d="M 362.5,252.5 C 363.906,252.973 364.573,253.973 364.5,255.5C 363.094,255.027 362.427,254.027 362.5,252.5 Z"/></g>
<g><path style="opacity:0.468" fill="#9da0a4" d="M 320.5,256.5 C 328.17,257.768 336.003,258.435 344,258.5C 351.341,258.5 358.508,258.166 365.5,257.5C 366.043,257.56 366.376,257.893 366.5,258.5C 351.5,259.833 336.5,259.833 321.5,258.5C 321.137,257.817 320.804,257.15 320.5,256.5 Z"/></g>
<g><path style="opacity:0.851" fill="#979ba0" d="M 372.5,258.5 C 374.048,258.821 374.715,259.821 374.5,261.5C 373.599,260.71 372.932,259.71 372.5,258.5 Z"/></g>
<g><path style="opacity:0.427" fill="#8d9296" d="M 188.5,257.5 C 188.573,259.027 187.906,260.027 186.5,260.5C 186.427,258.973 187.094,257.973 188.5,257.5 Z"/></g>
<g><path style="opacity:0.404" fill="#8b8f93" d="M 239.5,257.5 C 239.573,259.027 238.906,260.027 237.5,260.5C 237.427,258.973 238.094,257.973 239.5,257.5 Z"/></g>
<g><path style="opacity:0.412" fill="#8f9397" d="M 417.5,259.5 C 418.906,259.973 419.573,260.973 419.5,262.5C 418.094,262.027 417.427,261.027 417.5,259.5 Z"/></g>
<g><path style="opacity:0.271" fill="#787d83" d="M 185.5,262.5 C 185.573,264.027 184.906,265.027 183.5,265.5C 183.427,263.973 184.094,262.973 185.5,262.5 Z"/></g>
<g><path style="opacity:0.314" fill="#82878c" d="M 376.5,264.5 C 377.043,264.56 377.376,264.893 377.5,265.5C 346.767,266.174 316.1,266.841 285.5,267.5C 315.653,265.836 345.986,264.836 376.5,264.5 Z"/></g>
<g><path style="opacity:0.384" fill="#898e93" d="M 235.5,264.5 C 235.573,266.027 234.906,267.027 233.5,267.5C 233.427,265.973 234.094,264.973 235.5,264.5 Z"/></g>
<g><path style="opacity:0.286" fill="#7e8388" d="M 420.5,264.5 C 421.906,264.973 422.573,265.973 422.5,267.5C 421.094,267.027 420.427,266.027 420.5,264.5 Z"/></g>
<g><path style="opacity:0.443" fill="#92969a" d="M 285.5,267.5 C 285.573,269.027 284.906,270.027 283.5,270.5C 283.427,268.973 284.094,267.973 285.5,267.5 Z"/></g>
<g><path style="opacity:0.184" fill="#6e747a" d="M 423.5,269.5 C 424.906,269.973 425.573,270.973 425.5,272.5C 424.094,272.027 423.427,271.027 423.5,269.5 Z"/></g>
<g><path style="opacity:1" fill="#afb2b5" d="M 181.5,269.5 C 181.408,271.848 180.408,273.514 178.5,274.5C 178.75,272.326 179.75,270.659 181.5,269.5 Z"/></g>
<g><path style="opacity:0.447" fill="#94989d" d="M 231.5,271.5 C 231.573,273.027 230.906,274.027 229.5,274.5C 229.427,272.973 230.094,271.973 231.5,271.5 Z"/></g>
<g><path style="opacity:0.212" fill="#6e737a" d="M 178.5,274.5 C 178.573,276.027 177.906,277.027 176.5,277.5C 176.427,275.973 177.094,274.973 178.5,274.5 Z"/></g>
<g><path style="opacity:0.231" fill="#72787d" d="M 229.5,274.5 C 229.573,276.027 228.906,277.027 227.5,277.5C 227.427,275.973 228.094,274.973 229.5,274.5 Z"/></g>
<g><path style="opacity:0.357" fill="#8a8f93" d="M 281.5,274.5 C 281.573,276.027 280.906,277.027 279.5,277.5C 279.427,275.973 280.094,274.973 281.5,274.5 Z"/></g>
<g><path style="opacity:0.314" fill="#84898f" d="M 428.5,278.5 C 429.906,278.973 430.573,279.973 430.5,281.5C 429.094,281.027 428.427,280.027 428.5,278.5 Z"/></g>
<g><path style="opacity:0.451" fill="#92979c" d="M 277.5,281.5 C 277.573,283.027 276.906,284.027 275.5,284.5C 275.427,282.973 276.094,281.973 277.5,281.5 Z"/></g>
<g><path style="opacity:0.408" fill="#8a8f94" d="M 173.5,283.5 C 173.573,285.027 172.906,286.027 171.5,286.5C 171.427,284.973 172.094,283.973 173.5,283.5 Z"/></g>
<g><path style="opacity:0.408" fill="#8d9297" d="M 224.5,283.5 C 224.573,285.027 223.906,286.027 222.5,286.5C 222.427,284.973 223.094,283.973 224.5,283.5 Z"/></g>
<g><path style="opacity:0.416" fill="#909499" d="M 432.5,285.5 C 433.906,285.973 434.573,286.973 434.5,288.5C 433.094,288.027 432.427,287.027 432.5,285.5 Z"/></g>
<g><path style="opacity:0.31" fill="#7f848a" d="M 274.5,286.5 C 274.573,288.027 273.906,289.027 272.5,289.5C 272.427,287.973 273.094,286.973 274.5,286.5 Z"/></g>
<g><path style="opacity:0.251" fill="#74797f" d="M 170.5,288.5 C 170.573,290.027 169.906,291.027 168.5,291.5C 168.427,289.973 169.094,288.973 170.5,288.5 Z"/></g>
<g><path style="opacity:0.42" fill="#8f9498" d="M 220.5,290.5 C 220.573,292.027 219.906,293.027 218.5,293.5C 218.427,291.973 219.094,290.973 220.5,290.5 Z"/></g>
<g><path style="opacity:0.267" fill="#7e8289" d="M 435.5,290.5 C 436.906,290.973 437.573,291.973 437.5,293.5C 436.094,293.027 435.427,292.027 435.5,290.5 Z"/></g>
<g><path style="opacity:0.369" fill="#81878c" d="M 166.5,295.5 C 166.573,297.027 165.906,298.027 164.5,298.5C 164.427,296.973 165.094,295.973 166.5,295.5 Z"/></g>
<g><path style="opacity:0.38" fill="#868b90" d="M 217.5,295.5 C 217.573,297.027 216.906,298.027 215.5,298.5C 215.427,296.973 216.094,295.973 217.5,295.5 Z"/></g>
<g><path style="opacity:0.49" fill="#9b9ea3" d="M 269.5,295.5 C 269.573,297.027 268.906,298.027 267.5,298.5C 267.427,296.973 268.094,295.973 269.5,295.5 Z"/></g>
<g><path style="opacity:0.498" fill="#9b9fa3" d="M 440.5,299.5 C 441.906,299.973 442.573,300.973 442.5,302.5C 441.094,302.027 440.427,301.027 440.5,299.5 Z"/></g>
<g><path style="opacity:0.504" fill="#9b9fa3" d="M 266.5,300.5 C 266.586,301.496 266.252,302.329 265.5,303C 324.668,303.832 383.668,303.665 442.5,302.5C 443.043,302.56 443.376,302.893 443.5,303.5C 383.837,304.5 324.17,304.833 264.5,304.5C 264.229,302.62 264.896,301.287 266.5,300.5 Z"/></g>
<g><path style="opacity:0.325" fill="#7e8389" d="M 162.5,302.5 C 162.573,304.027 161.906,305.027 160.5,305.5C 160.427,303.973 161.094,302.973 162.5,302.5 Z"/></g>
<g><path style="opacity:0.357" fill="#84898e" d="M 213.5,302.5 C 213.573,304.027 212.906,305.027 211.5,305.5C 211.427,303.973 212.094,302.973 213.5,302.5 Z"/></g>
<g><path style="opacity:0.211" fill="#70757c" d="M 255.5,306.5 C 255.586,307.496 255.252,308.329 254.5,309C 319.001,309.167 383.335,309.667 447.5,310.5C 382.665,310.832 317.998,310.499 253.5,309.5C 253.427,307.973 254.094,306.973 255.5,306.5 Z"/></g>
<g><path style="opacity:0.907" fill="#edeeef" d="M 253.5,309.5 C 317.998,310.499 382.665,310.832 447.5,310.5C 447.5,310.833 447.5,311.167 447.5,311.5C 382.497,311.833 317.497,311.5 252.5,310.5C 252.624,309.893 252.957,309.56 253.5,309.5 Z"/></g>
<g><path style="opacity:0.404" fill="#898e93" d="M 158.5,309.5 C 158.573,311.027 157.906,312.027 156.5,312.5C 156.427,310.973 157.094,309.973 158.5,309.5 Z"/></g>
<g><path style="opacity:0.412" fill="#8d9296" d="M 209.5,309.5 C 209.573,311.027 208.906,312.027 207.5,312.5C 207.427,310.973 208.094,309.973 209.5,309.5 Z"/></g>
<g><path style="opacity:0.471" fill="#969a9f" d="M 447.5,311.5 C 448.906,311.973 449.573,312.973 449.5,314.5C 448.094,314.027 447.427,313.027 447.5,311.5 Z"/></g>
<g><path style="opacity:0.263" fill="#74797f" d="M 155.5,314.5 C 155.573,316.027 154.906,317.027 153.5,317.5C 153.427,315.973 154.094,314.973 155.5,314.5 Z"/></g>
<g><path style="opacity:0.439" fill="#909399" d="M 205.5,316.5 C 205.573,318.027 204.906,319.027 203.5,319.5C 203.427,317.973 204.094,316.973 205.5,316.5 Z"/></g>
<g><path style="opacity:0.306" fill="#83888e" d="M 450.5,316.5 C 451.906,316.973 452.573,317.973 452.5,319.5C 451.094,319.027 450.427,318.027 450.5,316.5 Z"/></g>
<g><path style="opacity:0.369" fill="#82868b" d="M 151.5,321.5 C 151.573,323.027 150.906,324.027 149.5,324.5C 149.427,322.973 150.094,321.973 151.5,321.5 Z"/></g>
<g><path style="opacity:0.365" fill="#858a8f" d="M 202.5,321.5 C 202.573,323.027 201.906,324.027 200.5,324.5C 200.427,322.973 201.094,321.973 202.5,321.5 Z"/></g>
<g><path style="opacity:0.38" fill="#8a8e93" d="M 454.5,323.5 C 455.906,323.973 456.573,324.973 456.5,326.5C 455.094,326.027 454.427,325.027 454.5,323.5 Z"/></g>
<g><path style="opacity:0.333" fill="#7e8389" d="M 147.5,328.5 C 147.573,330.027 146.906,331.027 145.5,331.5C 145.427,329.973 146.094,328.973 147.5,328.5 Z"/></g>
<g><path style="opacity:0.369" fill="#858a8f" d="M 198.5,328.5 C 198.573,330.027 197.906,331.027 196.5,331.5C 196.427,329.973 197.094,328.973 198.5,328.5 Z"/></g>
<g><path style="opacity:0.31" fill="#83878d" d="M 458.5,330.5 C 459.906,330.973 460.573,331.973 460.5,333.5C 459.094,333.027 458.427,332.027 458.5,330.5 Z"/></g>
<g><path style="opacity:0.408" fill="#888c92" d="M 143.5,335.5 C 143.573,337.027 142.906,338.027 141.5,338.5C 141.427,336.973 142.094,335.973 143.5,335.5 Z"/></g>
<g><path style="opacity:0.392" fill="#8b9095" d="M 194.5,335.5 C 194.573,337.027 193.906,338.027 192.5,338.5C 192.427,336.973 193.094,335.973 194.5,335.5 Z"/></g>
<g><path style="opacity:0.404" fill="#8c9095" d="M 462.5,337.5 C 463.906,337.973 464.573,338.973 464.5,340.5C 463.094,340.027 462.427,339.027 462.5,337.5 Z"/></g>
<g><path style="opacity:0.267" fill="#797f85" d="M 465.5,342.5 C 466.906,342.973 467.573,343.973 467.5,345.5C 466.094,345.027 465.427,344.027 465.5,342.5 Z"/></g>
<g><path style="opacity:0.506" fill="#9ca0a4" d="M 137.5,345.5 C 151.461,347.483 165.794,348.15 180.5,347.5C 165.661,348.826 150.661,348.826 135.5,347.5C 135.855,346.478 136.522,345.811 137.5,345.5 Z"/></g>
<g><path style="opacity:0.505" fill="#a5a8ac" d="M 188.5,345.5 C 234.662,346.833 281.162,347.5 328,347.5C 374.838,347.5 421.338,346.833 467.5,345.5C 468.404,346.209 468.737,347.209 468.5,348.5C 374.498,348.833 280.498,348.5 186.5,347.5C 186.855,346.478 187.522,345.811 188.5,345.5 Z"/></g>
</svg>
